PathFileType	4	(X/Y/Z)	D:\TRACE\spotREDO_2-26-24\spot_Both_Motion_3_10-v60.trc
DataRate	CameraRate	NumFrames	NumMarkers	Units	OrigDataRate	OrigDataStartFrame	OrigNumFrames
100.00	100.00	      14	9	mm	100.00	1751	      7000
Frame#	Time	front left toe			Front right toe			aft left toe			aft right toe			Arm			FL body			FR body			AL Body			AR Body			
		X1	Y1	Z1	X2	Y2	Z2	X3	Y3	Z3	X4	Y4	Z4	X5	Y5	Z5	X6	Y6	Z6	X7	Y7	Z7	X8	Y8	Z8	X9	Y9	Z9	

1751	17.500	-211.04391	20.75740	-408.73859	219.82257	22.42178	-514.06769	-176.53687	15.30097	169.28532	208.16197	26.17718	142.48915	24.03026	736.34790	-723.41547	-107.54377	593.85297	-501.75787	48.47862	598.02966	-503.97488	-101.53311	567.78400	381.75421	45.96908	561.41455	382.13739	
1752	17.510	-211.07707	20.79906	-408.80142	219.96437	22.50089	-514.17480	-176.57455	15.32717	169.25475	208.20985	26.22477	142.52240	23.81640	734.68604	-724.49164	-107.21375	593.85577	-502.58685	48.82471	597.79938	-504.54544	-100.77024	567.65942	381.06766	46.28516	561.21350	381.72046	
1753	17.520	-211.02771	20.74902	-408.85654	219.90196	22.42162	-514.07471	-176.51466	15.23110	169.22920	208.12025	26.08120	142.40746	23.37832	731.94446	-726.21216	-106.64428	594.08820	-502.98770	49.26853	597.84613	-504.97357	-100.42278	567.32635	380.61786	46.55532	560.93188	381.11243	
1754	17.530	-210.98964	20.81462	-408.78262	220.08418	22.46543	-513.99030	-176.51323	15.16299	169.31023	208.18460	26.05619	142.53616	22.51826	728.38214	-728.98712	-106.20827	594.55670	-503.14175	50.04243	597.91370	-504.64099	-99.91365	566.89545	380.50525	47.31575	560.14960	380.94479	
1755	17.540	-210.92357	21.02464	-408.84702	220.06392	22.42386	-513.96826	-176.49944	15.15446	169.31541	208.14326	25.95699	142.65233	21.34392	724.06421	-732.29590	-105.07241	594.50720	-502.91144	50.73061	598.10602	-505.16281	-99.35639	566.40485	380.45615	47.93859	559.73315	380.90875	
1756	17.550	-210.88824	21.19891	-408.90497	220.38663	22.45359	-513.80212	-176.49048	15.23232	169.34946	208.28212	25.99439	142.79941	20.13870	719.32104	-736.52161	-104.39800	594.39978	-503.13849	51.66655	597.76611	-505.07974	-98.80537	566.19049	380.43307	48.46261	559.46881	380.89291	
1757	17.560	-210.86507	21.20100	-408.82999	220.51402	22.37107	-513.65234	-176.48302	15.24786	169.33374	208.19412	25.90173	142.78467	18.49798	714.48413	-740.82819	-103.50979	593.80060	-503.03162	52.37688	596.88458	-504.70782	-97.91943	566.22748	380.51596	49.14563	559.30872	381.03012	
1758	17.570	-210.76735	20.94524	-408.70352	220.65697	22.34110	-513.57928	-176.47021	15.30080	169.38205	208.32079	25.89405	142.84143	17.30046	709.74615	-745.41473	-103.05109	592.78503	-503.18454	52.87001	595.78735	-505.13358	-97.04207	566.62714	380.62448	50.03503	559.50745	381.10358	
1759	17.580	-210.77209	20.81226	-408.64084	220.72934	22.30971	-513.45959	-176.37823	15.37417	169.47034	208.32774	25.84125	142.78874	16.41524	705.73993	-749.94073	-102.60456	591.44904	-503.05728	53.40905	594.11664	-505.21289	-95.87392	567.34753	380.70544	51.33102	560.02045	381.27380	
1760	17.590	-210.74567	20.74454	-408.35980	221.31354	22.91818	-513.33472	-176.25516	15.63800	169.64285	208.42595	25.85318	142.74001	16.58159	702.59949	-753.74719	-102.34516	589.55676	-502.89880	53.82647	592.26001	-505.39764	-94.47101	568.30688	380.72995	52.49752	560.71643	381.00241	
1761	17.600	-210.72525	20.67434	-408.10306	221.40733	22.92384	-513.13629	-176.00114	15.92020	169.72395	208.57999	25.76609	142.60788	16.91347	700.30536	-757.11188	-102.09370	587.59180	-502.95157	54.20720	590.06024	-505.64883	-93.00428	569.42151	380.67432	54.40248	561.84900	380.95267	
1762	17.610	-210.77327	20.63377	-407.99353	221.38336	22.90244	-513.11420	-175.68095	16.34740	169.67064	208.72194	25.64794	142.38518	18.15061	698.67743	-759.72406	-102.03149	585.41522	-503.17297	54.27437	587.83722	-506.06802	-91.33738	570.50519	380.57266	56.19270	562.63940	380.50540	
1763	17.620	-210.77313	20.55144	-407.80457	221.37163	22.92568	-513.13635	-175.58174	16.48917	169.68756	209.12030	25.49688	142.19302	19.26808	698.10059	-761.69604	-101.92530	583.07782	-503.49896	54.31906	585.60760	-506.60037	-89.49869	571.50739	380.62701	57.47420	563.50092	380.12155	
1764	17.630	-210.72371	20.38778	-407.61774	221.37677	22.92126	-513.13538	-175.31068	16.46311	169.66222	209.29700	25.37424	142.08043	21.01179	698.21582	-763.29694	-101.52476	580.91431	-503.78033	54.58712	583.10101	-506.91989	-87.90037	572.28986	380.27441	59.35505	564.22791	379.72437	
